<svg xmlns="http://www.w3.org/2000/svg" width="48" height="48" viewBox="0 0 48 48" fill="none">
  <rect width="48" height="48" rx="10" fill="#1c1a17"/>
  <path d="M12 30h10v6a2 2 0 0 1-2 2h-6a2 2 0 0 1-2-2v-6Z" fill="#f3efe6"/>
  <path d="M10 22h16l4 4v2a2 2 0 0 1-2 2H12a2 2 0 0 1-2-2v-6Z" fill="#f3efe6"/>
  <path d="M16 22v-3a4 4 0 0 1 4-4h2a4 4 0 0 1 4 4" stroke="#f3efe6" stroke-width="2" stroke-linecap="round"/>
  <circle cx="33" cy="14" r="3" fill="#c4501f"/>
  <path d="M33 9v1.4M33 16.6V18M28 14h1.4M36.6 14H38" stroke="#c4501f" stroke-width="1.6" stroke-linecap="round"/>
</svg>
